<svg xmlns="http://www.w3.org/2000/svg" viewBox="0 0 50 50">
    <path d="M 29.550781 3.96875 C 29.035156 3.96875 28.523438 4.164063 28.136719 4.550781 L 26.050781 6.636719 C 25.277344 7.410156 25.277344 8.691406 26.050781 9.464844 L 31.085938 14.5 L 14.5 31.085938 L 9.53125 26.117188 C 9.144531 25.730469 8.632813 25.535156 8.117188 25.535156 C 7.601563 25.535156 7.089844 25.730469 6.703125 26.117188 L 4.617188 28.203125 C 3.84375 28.976563 3.84375 30.257813 4.617188 31.03125 L 6.585938 33 L 4.585938 35 C 3.8125 35.773438 3.8125 37.054688 4.585938 37.828125 L 6.171875 39.414063 L 4.878906 40.707031 C 3.714844 41.871094 3.714844 43.785156 4.878906 44.949219 L 5.050781 45.121094 C 6.214844 46.285156 8.128906 46.285156 9.292969 45.121094 L 10.585938 43.828125 L 12.171875 45.414063 C 12.945313 46.1875 14.226563 46.1875 15 45.414063 L 17 43.414063 L 18.992188 45.40625 C 19.765625 46.179688 21.046875 46.179688 21.820313 45.40625 L 23.90625 43.320313 C 24.679688 42.546875 24.679688 41.265625 23.90625 40.492188 L 18.914063 35.5 L 35.5 18.914063 L 40.515625 23.925781 C 41.285156 24.699219 42.570313 24.699219 43.34375 23.925781 L 45.425781 21.84375 C 46.199219 21.070313 46.199219 19.785156 45.425781 19.015625 L 43.414063 17 L 45.414063 15 C 46.1875 14.226563 46.1875 12.945313 45.414063 12.171875 L 43.828125 10.585938 L 45.121094 9.292969 C 46.285156 8.128906 46.285156 6.214844 45.121094 5.050781 L 44.949219 4.878906 C 44.367188 4.296875 43.597656 4.007813 42.828125 4.007813 C 42.058594 4.007813 41.289063 4.296875 40.707031 4.878906 L 39.414063 6.171875 L 37.828125 4.585938 C 37.441406 4.199219 36.929688 4.007813 36.414063 4.007813 C 35.898438 4.003906 35.386719 4.199219 35 4.585938 L 33 6.585938 L 30.964844 4.550781 C 30.578125 4.164063 30.066406 3.972656 29.550781 3.96875 Z M 29.550781 5.964844 L 44.011719 20.425781 L 44.015625 20.425781 L 41.925781 22.511719 L 27.464844 8.050781 Z M 42.828125 5.992188 C 43.082031 5.992188 43.335938 6.09375 43.535156 6.292969 L 43.707031 6.464844 C 44.105469 6.863281 44.105469 7.480469 43.707031 7.878906 L 42.414063 9.171875 L 40.828125 7.585938 L 42.121094 6.292969 C 42.320313 6.09375 42.574219 5.992188 42.828125 5.992188 Z M 36.410156 6 L 36.414063 6 L 44 13.585938 L 42 15.585938 L 34.414063 8 Z M 32.5 15.914063 L 34.085938 17.5 L 17.5 34.085938 L 15.914063 32.5 Z M 8.117188 27.53125 L 22.492188 41.90625 L 20.40625 43.992188 L 6.03125 29.617188 Z M 8 34.414063 L 15.585938 42 L 13.585938 44 L 6 36.414063 Z M 7.585938 40.828125 L 9.171875 42.414063 L 7.878906 43.707031 C 7.480469 44.105469 6.863281 44.105469 6.464844 43.707031 L 6.292969 43.535156 C 5.894531 43.136719 5.894531 42.519531 6.292969 42.121094 Z"></path>
</svg>
