<svg xmlns="http://www.w3.org/2000/svg" viewBox="0 0 40 40">
    <path fill="#dcd5f2"
          d="M20,38.5C9.799,38.5,1.5,30.201,1.5,20c0-4.314,1.521-8.494,4.291-11.819 C6.161,8.389,6.577,8.5,7,8.5c1.379,0,2.5-1.121,2.5-2.5c0-0.363-0.079-0.718-0.232-1.044C12.428,2.693,16.129,1.5,20,1.5 c10.201,0,18.5,8.299,18.5,18.5c0,2.59-0.54,5.111-1.607,7.502C35.564,27.559,34.5,28.657,34.5,30c0,0.39,0.091,0.77,0.265,1.115 C31.272,35.745,25.778,38.5,20,38.5z"></path>
    <path fill="#8b75a1"
          d="M20,2c9.925,0,18,8.075,18,18c0,2.422-0.487,4.785-1.448,7.033C35.109,27.25,34,28.498,34,30 c0,0.36,0.064,0.712,0.189,1.045C30.784,35.411,25.525,38,20,38c-9.925,0-18-8.075-18-18c0-4.069,1.391-8.016,3.932-11.201 C6.272,8.931,6.634,9,7,9c1.654,0,3-1.346,3-3c0-0.293-0.043-0.581-0.127-0.858C12.878,3.084,16.362,2,20,2 M20,1 c-4.28,0-8.216,1.432-11.392,3.82C8.851,5.152,9,5.557,9,6c0,1.105-0.895,2-2,2C6.503,8,6.054,7.812,5.704,7.512 C2.783,10.853,1,15.214,1,20c0,10.493,8.507,19,19,19c6.324,0,11.911-3.102,15.364-7.854C35.136,30.821,35,30.427,35,30 c0-1.105,0.895-2,2-2c0.07,0,0.137,0.014,0.206,0.021C38.345,25.581,39,22.87,39,20C39,9.507,30.493,1,20,1L20,1z"></path>
    <path fill="#a59dd1" d="M16.5 8.5A3 3 0 1 0 16.5 14.5A3 3 0 1 0 16.5 8.5Z"></path>
    <path fill="#8b75a1"
          d="M16.5,9c1.379,0,2.5,1.121,2.5,2.5S17.879,14,16.5,14S14,12.879,14,11.5S15.121,9,16.5,9 M16.5,8 C14.567,8,13,9.567,13,11.5s1.567,3.5,3.5,3.5s3.5-1.567,3.5-3.5S18.433,8,16.5,8L16.5,8z"></path>
    <path fill="#a59dd1" d="M18.5 25.5A3 3 0 1 0 18.5 31.5A3 3 0 1 0 18.5 25.5Z"></path>
    <path fill="#8b75a1"
          d="M18.5,26c1.379,0,2.5,1.121,2.5,2.5S19.879,31,18.5,31S16,29.879,16,28.5S17.121,26,18.5,26 M18.5,25c-1.933,0-3.5,1.567-3.5,3.5s1.567,3.5,3.5,3.5s3.5-1.567,3.5-3.5S20.433,25,18.5,25L18.5,25z"></path>
    <g>
        <path fill="#a59dd1" d="M30 24.5A1.5 1.5 0 1 0 30 27.5A1.5 1.5 0 1 0 30 24.5Z"></path>
        <path fill="#8b75a1"
              d="M30,25c0.551,0,1,0.449,1,1s-0.449,1-1,1s-1-0.449-1-1S29.449,25,30,25 M30,24 c-1.105,0-2,0.895-2,2s0.895,2,2,2s2-0.895,2-2S31.105,24,30,24L30,24z"></path>
    </g>
    <g>
        <path fill="#a59dd1" d="M10 20.5A1.5 1.5 0 1 0 10 23.5A1.5 1.5 0 1 0 10 20.5Z"></path>
        <path fill="#8b75a1"
              d="M10,21c0.551,0,1,0.449,1,1s-0.449,1-1,1s-1-0.449-1-1S9.449,21,10,21 M10,20c-1.105,0-2,0.895-2,2 s0.895,2,2,2s2-0.895,2-2S11.105,20,10,20L10,20z"></path>
    </g>
    <g>
        <path fill="#a59dd1"
              d="M38,20c0-9.925-8.075-18-18-18c-3.638,0-7.122,1.084-10.127,3.142C9.957,5.419,10,5.707,10,6 c0,0.019-0.005,0.036-0.005,0.054C11.864,5.434,13.851,5,15.929,5C26.422,5,35,13.578,35,24.071c0,1.536-0.259,3.026-0.606,4.454 c0.446-0.785,1.231-1.353,2.158-1.492C37.513,24.785,38,22.422,38,20z"></path>
    </g>
</svg>
