<svg xmlns="http://www.w3.org/2000/svg" viewBox="0 0 50 50">
    <path d="M 22.5 3 C 20.027344 3 18 5.027344 18 7.5 C 18 9.523438 19.367188 11.230469 21.214844 11.789063 L 18.4375 12.25 C 18.433594 12.25 18.433594 12.25 18.433594 12.25 C 17.917969 12.339844 17.441406 12.566406 17.050781 12.910156 C 17.046875 12.914063 17.046875 12.917969 17.042969 12.921875 L 7.929688 21.15625 C 6.800781 22.164063 6.695313 23.929688 7.703125 25.066406 C 8.242188 25.679688 9.011719 26 9.773438 26 C 10.425781 26 11.089844 25.765625 11.613281 25.296875 C 11.617188 25.296875 11.621094 25.296875 11.621094 25.292969 L 14.023438 23.121094 L 12.125 29.152344 C 12.121094 29.15625 12.117188 29.164063 12.113281 29.171875 C 12.097656 29.234375 12.09375 29.296875 12.082031 29.359375 L 7.011719 24.777344 C 6.402344 24.222656 5.617188 23.972656 4.851563 24.011719 C 4.082031 24.046875 3.328125 24.375 2.773438 24.984375 C 1.671875 26.207031 1.765625 28.121094 2.984375 29.222656 L 21.328125 45.816406 C 21.386719 45.871094 21.449219 45.914063 21.515625 45.953125 C 21.515625 45.953125 22.125 46.265625 23.292969 46.515625 C 24.457031 46.765625 26.277344 47 29 47 C 29.414063 47 29.785156 46.746094 29.933594 46.359375 C 30.082031 45.972656 29.976563 45.535156 29.671875 45.257813 L 24.816406 40.871094 C 26.066406 40.511719 27 39.359375 27 38 L 27 31.644531 C 27.636719 31.367188 28.722656 30.855469 30.074219 29.914063 C 31.933594 28.617188 34 26.675781 34 24 C 34 22.316406 33.417969 20.5625 32.761719 18.914063 C 32.277344 17.699219 31.832031 16.722656 31.417969 15.765625 L 37.578125 14.683594 L 37.589844 14.683594 C 37.757813 14.652344 37.929688 14.609375 38.105469 14.542969 C 38.105469 14.539063 38.109375 14.539063 38.109375 14.539063 L 46.203125 11.371094 L 46.203125 11.367188 C 47.625 10.832031 48.355469 9.222656 47.824219 7.800781 C 47.289063 6.375 45.675781 5.644531 44.253906 6.175781 C 44.25 6.175781 44.246094 6.179688 44.238281 6.179688 L 36.394531 9.257813 L 25.121094 11.140625 C 26.253906 10.320313 27 8.996094 27 7.5 C 27 5.027344 24.972656 3 22.5 3 Z M 22.5 5 C 23.890625 5 25 6.109375 25 7.5 C 25 8.890625 23.890625 10 22.5 10 C 21.109375 10 20 8.890625 20 7.5 C 20 6.109375 21.109375 5 22.5 5 Z M 45.261719 8 C 45.5625 8.007813 45.835938 8.195313 45.953125 8.5 C 46.105469 8.910156 45.910156 9.34375 45.5 9.496094 C 45.492188 9.496094 45.488281 9.5 45.484375 9.5 L 37.378906 12.675781 C 37.347656 12.691406 37.304688 12.703125 37.25 12.710938 C 37.246094 12.710938 37.246094 12.710938 37.242188 12.714844 L 29.828125 14.015625 C 29.53125 14.066406 29.277344 14.25 29.128906 14.507813 C 28.980469 14.769531 28.960938 15.082031 29.066406 15.359375 C 29.539063 16.582031 30.285156 18.097656 30.90625 19.65625 C 31.523438 21.210938 32 22.808594 32 24 C 32 25.574219 30.566406 27.132813 28.925781 28.273438 C 27.367188 29.359375 25.878906 29.964844 25.734375 30.023438 C 25.335938 30.132813 25.046875 30.480469 25.003906 30.890625 C 25.003906 30.898438 25.003906 30.90625 25.003906 30.914063 C 25 30.941406 25 30.972656 25 31 L 25 38 C 25 38.5625 24.5625 39 24 39 C 23.4375 39 23 38.5625 23 38 L 23 29.867188 C 23 29.511719 23.183594 29.191406 23.484375 29.011719 C 23.492188 29.007813 23.496094 29.003906 23.5 29 L 28.53125 25.847656 C 28.914063 25.613281 29.097656 25.152344 28.976563 24.722656 C 28.851563 24.289063 28.457031 23.988281 28.007813 23.992188 C 27.816406 23.992188 27.628906 24.046875 27.46875 24.152344 L 25.707031 25.257813 C 25.597656 25.207031 25.476563 25.175781 25.355469 25.167969 L 18.566406 24.703125 C 18.109375 24.667969 17.691406 24.953125 17.546875 25.390625 L 15.972656 30.238281 C 15.96875 30.25 15.964844 30.261719 15.960938 30.277344 C 15.832031 30.722656 15.433594 31 15 31 C 14.910156 31 14.820313 30.988281 14.726563 30.960938 C 14.726563 30.960938 14.726563 30.960938 14.722656 30.960938 C 14.183594 30.804688 13.882813 30.265625 14.039063 29.722656 L 16.078125 23.25 C 16.082031 23.242188 16.082031 23.234375 16.085938 23.222656 C 16.222656 22.738281 16.6875 22.429688 17.171875 22.488281 C 17.210938 22.496094 17.253906 22.5 17.296875 22.5 L 22.4375 22.5 C 22.488281 22.5 22.539063 22.5 22.59375 22.496094 C 22.59375 22.496094 22.597656 22.496094 22.597656 22.496094 C 22.605469 22.492188 22.609375 22.492188 22.613281 22.492188 C 22.636719 22.488281 22.65625 22.488281 22.679688 22.484375 C 22.6875 22.480469 22.691406 22.480469 22.699219 22.480469 C 22.71875 22.476563 22.734375 22.472656 22.75 22.46875 C 22.757813 22.46875 22.761719 22.464844 22.765625 22.464844 C 23.089844 22.378906 23.355469 22.132813 23.460938 21.8125 C 23.566406 21.488281 23.503906 21.136719 23.292969 20.871094 L 20.550781 16.148438 C 20.398438 15.886719 20.136719 15.707031 19.839844 15.664063 C 19.539063 15.617188 19.238281 15.707031 19.015625 15.910156 L 10.285156 23.804688 C 10.132813 23.9375 9.957031 24 9.773438 24 C 9.558594 24 9.351563 23.914063 9.199219 23.742188 C 9.199219 23.742188 9.199219 23.742188 9.195313 23.738281 C 8.90625 23.414063 8.933594 22.9375 9.257813 22.648438 C 9.261719 22.648438 9.265625 22.644531 9.265625 22.644531 L 18.375 14.410156 C 18.484375 14.3125 18.621094 14.25 18.765625 14.222656 L 36.828125 11.214844 C 36.894531 11.203125 36.964844 11.183594 37.027344 11.15625 L 44.957031 8.050781 C 45.058594 8.011719 45.160156 7.996094 45.261719 8 Z M 19.4375 18.21875 L 20.761719 20.5 L 17.296875 20.5 L 17.421875 20.507813 C 17.253906 20.488281 17.089844 20.484375 16.925781 20.492188 Z M 4.949219 25.996094 C 5.203125 25.980469 5.460938 26.070313 5.671875 26.257813 C 5.667969 26.257813 5.667969 26.257813 5.671875 26.261719 L 26.140625 44.761719 C 25.367188 44.679688 24.167969 44.660156 23.707031 44.5625 C 22.75 44.355469 22.558594 44.230469 22.539063 44.21875 L 4.328125 27.742188 C 3.910156 27.363281 3.878906 26.746094 4.257813 26.328125 C 4.445313 26.117188 4.695313 26.007813 4.949219 25.996094 Z M 19.207031 26.75 L 22.921875 27.003906 L 22.457031 27.296875 C 22.457031 27.296875 22.453125 27.296875 22.453125 27.296875 C 21.554688 27.839844 21 28.816406 21 29.867188 L 21 37.421875 L 15.941406 32.84375 C 16.851563 32.542969 17.601563 31.808594 17.886719 30.824219 L 17.875 30.859375 Z"></path>
</svg>
