<svg xmlns="http://www.w3.org/2000/svg" viewBox="0 0 50 50">
    <path d="M 32.822266 1.0039062 C 32.624063 1.0153172 32.425129 1.0463718 32.226562 1.0996094 C 30.637594 1.5240291 29.676939 3.1817517 30.101562 4.7714844 L 31.699219 10.761719 L 28.130859 15 L 23.419922 15 L 17.402344 13.28125 L 12.873047 9.65625 C 11.589157 8.6297335 9.6856907 8.8419839 8.6582031 10.126953 C 7.6301049 11.411331 7.8409348 13.313949 9.125 14.341797 A 1.0001 1.0001 0 0 0 9.125 14.34375 L 14.125 18.34375 L 14.125 18.341797 C 14.435311 18.590645 14.791397 18.775987 15.175781 18.884766 L 21 20.548828 L 21 43.5 C 21 43.659239 21.027839 43.811013 21.048828 43.964844 L 4 36.970703 L 4 39.132812 L 28.054688 49 L 33.320312 49 L 26.626953 46.253906 C 27.454533 45.611563 28 44.619533 28 43.5 L 28 31.154297 L 33.208984 34.287109 L 35.675781 39.527344 A 1.0001 1.0001 0 0 0 35.8125 39.742188 C 36.499951 40.566015 37.500106 41 38.501953 41 C 39.290539 41 40.089891 40.731174 40.740234 40.189453 C 42.161213 39.005528 42.387049 36.906245 41.304688 35.433594 L 41.300781 35.425781 L 37.900391 28.949219 A 1.0001 1.0001 0 0 0 37.529297 28.556641 L 32 25.240234 L 32 19.71875 L 37.294922 13.431641 C 37.924556 12.683576 38.150315 11.672605 37.898438 10.726562 A 1.0001 1.0001 0 0 0 37.898438 10.724609 L 35.898438 3.2246094 C 35.526543 1.8322902 34.209683 0.92402974 32.822266 1.0039062 z M 33.140625 3.0058594 C 33.526099 3.0577836 33.858063 3.3331507 33.966797 3.7402344 L 35.966797 11.240234 C 36.050917 11.556192 35.975997 11.892643 35.765625 12.142578 L 30.234375 18.708984 A 1.0001 1.0001 0 0 0 30 19.353516 L 30 25.806641 A 1.0001 1.0001 0 0 0 30.486328 26.664062 L 36.259766 30.126953 L 39.535156 36.363281 A 1.0001 1.0001 0 0 0 39.652344 36.539062 C 40.190964 37.184798 40.104821 38.114248 39.458984 38.652344 C 39.175651 38.887747 38.840756 39 38.501953 39 C 38.088613 39 37.690373 38.814949 37.392578 38.482422 L 34.890625 33.160156 A 1.0001 1.0001 0 0 0 34.5 32.728516 L 28.533203 29.142578 A 1.0001 1.0001 0 0 0 28.019531 29 L 27 29 A 1.0001 1.0001 0 0 0 26 30 L 26 43.5 C 26 44.340812 25.340812 45 24.5 45 C 23.659188 45 23 44.340812 23 43.5 L 23 19.794922 A 1.0001 1.0001 0 0 0 22.275391 18.832031 L 15.724609 16.960938 A 1.0001 1.0001 0 0 0 15.722656 16.960938 C 15.59773 16.92565 15.478233 16.864036 15.375 16.78125 L 10.375 12.78125 C 9.9350652 12.429098 9.8668482 11.814622 10.21875 11.375 C 10.571534 10.933253 11.183369 10.86565 11.625 11.21875 L 16.310547 14.96875 A 1.0001 1.0001 0 0 0 16.660156 15.148438 L 23.005859 16.960938 A 1.0001 1.0001 0 0 0 23.279297 17 L 28.595703 17 A 1.0001 1.0001 0 0 0 29.361328 16.644531 L 33.564453 11.650391 A 1.0001 1.0001 0 0 0 33.765625 10.75 L 32.035156 4.2558594 A 1.0001 1.0001 0 0 0 32.033203 4.2558594 C 31.887874 3.7115921 32.197156 3.1768302 32.742188 3.03125 A 1.0001 1.0001 0 0 0 32.744141 3.03125 C 32.878507 2.9952251 33.012134 2.9885513 33.140625 3.0058594 z M 25.5 5 C 23.026563 5 21 7.0265633 21 9.5 C 21 11.973437 23.026563 14 25.5 14 C 27.973437 14 30 11.973437 30 9.5 C 30 7.0265633 27.973437 5 25.5 5 z M 25.5 7 C 26.892557 7 28 8.1074435 28 9.5 C 28 10.892557 26.892557 12 25.5 12 C 24.107443 12 23 10.892557 23 9.5 C 23 8.1074435 24.107443 7 25.5 7 z"></path>
</svg>
